<mxfile host="app.diagrams.net" agent="Mozilla/5.0 (Windows NT 10.0; Win64; x64) AppleWebKit/537.36 (KHTML, like Gecko) Chrome/139.0.0.0 Safari/537.36" version="28.2.0">
  <diagram name="Page-1" id="sLleBnH7VevDeFXpyoz7">
    <mxGraphModel dx="918" dy="1571" grid="1" gridSize="10" guides="1" tooltips="1" connect="1" arrows="1" fold="1" page="1" pageScale="1" pageWidth="850" pageHeight="1100" math="0" shadow="0">
      <root>
        <mxCell id="0" />
        <mxCell id="1" parent="0" />
        <mxCell id="v7NjOVT4-B9JpN9Twq9m-3" value="" style="rounded=0;orthogonalLoop=1;jettySize=auto;html=1;" edge="1" parent="1" source="v7NjOVT4-B9JpN9Twq9m-1" target="v7NjOVT4-B9JpN9Twq9m-24">
          <mxGeometry relative="1" as="geometry">
            <mxPoint x="336.66666666666674" y="420" as="targetPoint" />
          </mxGeometry>
        </mxCell>
        <mxCell id="v7NjOVT4-B9JpN9Twq9m-19" value="" style="edgeStyle=orthogonalEdgeStyle;rounded=0;orthogonalLoop=1;jettySize=auto;html=1;entryX=0.35;entryY=0.062;entryDx=0;entryDy=0;entryPerimeter=0;" edge="1" parent="1" source="v7NjOVT4-B9JpN9Twq9m-1" target="v7NjOVT4-B9JpN9Twq9m-22">
          <mxGeometry relative="1" as="geometry">
            <mxPoint x="420" y="395" as="targetPoint" />
            <Array as="points">
              <mxPoint x="420" y="-425" />
              <mxPoint x="422" y="-425" />
            </Array>
          </mxGeometry>
        </mxCell>
        <mxCell id="v7NjOVT4-B9JpN9Twq9m-1" value="Main Module" style="whiteSpace=wrap;html=1;strokeColor=default;" vertex="1" parent="1">
          <mxGeometry x="360" y="-450" width="120" height="50" as="geometry" />
        </mxCell>
        <mxCell id="v7NjOVT4-B9JpN9Twq9m-21" value="" style="endArrow=classic;html=1;rounded=0;exitX=0.75;exitY=1;exitDx=0;exitDy=0;" edge="1" parent="1" source="v7NjOVT4-B9JpN9Twq9m-1" target="v7NjOVT4-B9JpN9Twq9m-25">
          <mxGeometry width="50" height="50" relative="1" as="geometry">
            <mxPoint x="400" y="470" as="sourcePoint" />
            <mxPoint x="520" y="-335" as="targetPoint" />
            <Array as="points" />
          </mxGeometry>
        </mxCell>
        <mxCell id="v7NjOVT4-B9JpN9Twq9m-22" value="Detail Loop&lt;div&gt;(rooms+ charge)&lt;/div&gt;" style="shape=process;whiteSpace=wrap;html=1;backgroundOutline=1;" vertex="1" parent="1">
          <mxGeometry x="380" y="-330" width="120" height="60" as="geometry" />
        </mxCell>
        <mxCell id="v7NjOVT4-B9JpN9Twq9m-24" value="Housekeeping&amp;nbsp;&lt;div&gt;(Input name)&lt;/div&gt;" style="rounded=0;whiteSpace=wrap;html=1;" vertex="1" parent="1">
          <mxGeometry x="260" y="-330" width="120" height="60" as="geometry" />
        </mxCell>
        <mxCell id="v7NjOVT4-B9JpN9Twq9m-25" value="End-of-job&lt;div&gt;(message)&lt;/div&gt;" style="rounded=0;whiteSpace=wrap;html=1;" vertex="1" parent="1">
          <mxGeometry x="500" y="-330" width="120" height="60" as="geometry" />
        </mxCell>
        <mxCell id="v7NjOVT4-B9JpN9Twq9m-26" value="Exercise1" style="text;html=1;align=center;verticalAlign=middle;resizable=0;points=[];autosize=1;strokeColor=none;fillColor=none;" vertex="1" parent="1">
          <mxGeometry x="380" y="-490" width="80" height="30" as="geometry" />
        </mxCell>
        <mxCell id="v7NjOVT4-B9JpN9Twq9m-27" value="Exercise2" style="text;html=1;align=center;verticalAlign=middle;resizable=0;points=[];autosize=1;strokeColor=none;fillColor=none;" vertex="1" parent="1">
          <mxGeometry x="370" y="-240" width="80" height="30" as="geometry" />
        </mxCell>
        <mxCell id="v7NjOVT4-B9JpN9Twq9m-30" value="" style="edgeStyle=orthogonalEdgeStyle;rounded=0;orthogonalLoop=1;jettySize=auto;html=1;" edge="1" parent="1" source="v7NjOVT4-B9JpN9Twq9m-28" target="v7NjOVT4-B9JpN9Twq9m-29">
          <mxGeometry relative="1" as="geometry" />
        </mxCell>
        <mxCell id="v7NjOVT4-B9JpN9Twq9m-28" value="Main Module" style="rounded=0;whiteSpace=wrap;html=1;" vertex="1" parent="1">
          <mxGeometry x="360" y="-190" width="120" height="50" as="geometry" />
        </mxCell>
        <mxCell id="v7NjOVT4-B9JpN9Twq9m-29" value="jobDetail&lt;div&gt;(materials + calc)&lt;/div&gt;" style="shape=process;whiteSpace=wrap;html=1;backgroundOutline=1;rounded=0;" vertex="1" parent="1">
          <mxGeometry x="360" y="-70" width="120" height="60" as="geometry" />
        </mxCell>
        <mxCell id="v7NjOVT4-B9JpN9Twq9m-32" value="GetHours&lt;div&gt;(Input hours)&lt;/div&gt;" style="rounded=0;whiteSpace=wrap;html=1;" vertex="1" parent="1">
          <mxGeometry x="240" y="-70" width="120" height="60" as="geometry" />
        </mxCell>
        <mxCell id="v7NjOVT4-B9JpN9Twq9m-34" value="" style="endArrow=classic;startArrow=classic;html=1;rounded=0;exitX=0.25;exitY=1;exitDx=0;exitDy=0;entryX=0.5;entryY=0;entryDx=0;entryDy=0;" edge="1" parent="1" source="v7NjOVT4-B9JpN9Twq9m-28" target="v7NjOVT4-B9JpN9Twq9m-32">
          <mxGeometry width="50" height="50" relative="1" as="geometry">
            <mxPoint x="350" y="700" as="sourcePoint" />
            <mxPoint x="420" y="630" as="targetPoint" />
          </mxGeometry>
        </mxCell>
        <mxCell id="v7NjOVT4-B9JpN9Twq9m-35" value="EndProgram&lt;div&gt;(message)&lt;/div&gt;" style="rounded=0;whiteSpace=wrap;html=1;" vertex="1" parent="1">
          <mxGeometry x="480" y="-70" width="120" height="60" as="geometry" />
        </mxCell>
        <mxCell id="v7NjOVT4-B9JpN9Twq9m-36" value="" style="endArrow=classic;startArrow=classic;html=1;rounded=0;entryX=0.583;entryY=1;entryDx=0;entryDy=0;entryPerimeter=0;exitX=0.5;exitY=0;exitDx=0;exitDy=0;" edge="1" parent="1" source="v7NjOVT4-B9JpN9Twq9m-35" target="v7NjOVT4-B9JpN9Twq9m-28">
          <mxGeometry width="50" height="50" relative="1" as="geometry">
            <mxPoint x="520" y="700" as="sourcePoint" />
            <mxPoint x="450" y="680" as="targetPoint" />
          </mxGeometry>
        </mxCell>
        <mxCell id="v7NjOVT4-B9JpN9Twq9m-39" value="(Hierarchy Chart)" style="text;html=1;align=center;verticalAlign=middle;resizable=0;points=[];autosize=1;strokeColor=none;fillColor=none;" vertex="1" parent="1">
          <mxGeometry x="350" y="-220" width="120" height="30" as="geometry" />
        </mxCell>
        <mxCell id="v7NjOVT4-B9JpN9Twq9m-40" value="(Hierarchy Chart)" style="text;html=1;align=center;verticalAlign=middle;resizable=0;points=[];autosize=1;strokeColor=none;fillColor=none;" vertex="1" parent="1">
          <mxGeometry x="360" y="-475" width="120" height="30" as="geometry" />
        </mxCell>
        <mxCell id="v7NjOVT4-B9JpN9Twq9m-41" value="Flowchart for Exercise 1" style="text;html=1;align=center;verticalAlign=middle;resizable=0;points=[];autosize=1;strokeColor=none;fillColor=none;" vertex="1" parent="1">
          <mxGeometry x="25" y="-1052" width="150" height="30" as="geometry" />
        </mxCell>
        <mxCell id="v7NjOVT4-B9JpN9Twq9m-44" value="" style="edgeStyle=orthogonalEdgeStyle;rounded=0;orthogonalLoop=1;jettySize=auto;html=1;" edge="1" parent="1" source="v7NjOVT4-B9JpN9Twq9m-42" target="v7NjOVT4-B9JpN9Twq9m-43">
          <mxGeometry relative="1" as="geometry" />
        </mxCell>
        <mxCell id="v7NjOVT4-B9JpN9Twq9m-42" value="START" style="ellipse;whiteSpace=wrap;html=1;" vertex="1" parent="1">
          <mxGeometry x="70" y="-1010" width="90" height="40" as="geometry" />
        </mxCell>
        <mxCell id="v7NjOVT4-B9JpN9Twq9m-46" value="" style="edgeStyle=orthogonalEdgeStyle;rounded=0;orthogonalLoop=1;jettySize=auto;html=1;" edge="1" parent="1" source="v7NjOVT4-B9JpN9Twq9m-43" target="v7NjOVT4-B9JpN9Twq9m-45">
          <mxGeometry relative="1" as="geometry" />
        </mxCell>
        <mxCell id="v7NjOVT4-B9JpN9Twq9m-43" value="Input customer&lt;div&gt;last name&lt;/div&gt;" style="shape=parallelogram;perimeter=parallelogramPerimeter;whiteSpace=wrap;html=1;fixedSize=1;" vertex="1" parent="1">
          <mxGeometry x="60" y="-940" width="110" height="40" as="geometry" />
        </mxCell>
        <mxCell id="v7NjOVT4-B9JpN9Twq9m-80" value="" style="edgeStyle=orthogonalEdgeStyle;rounded=0;orthogonalLoop=1;jettySize=auto;html=1;" edge="1" parent="1" source="v7NjOVT4-B9JpN9Twq9m-45" target="v7NjOVT4-B9JpN9Twq9m-79">
          <mxGeometry relative="1" as="geometry" />
        </mxCell>
        <mxCell id="v7NjOVT4-B9JpN9Twq9m-45" value="Name==ZZZZ?&lt;div&gt;&lt;br&gt;&lt;div&gt;&lt;br&gt;&lt;/div&gt;&lt;/div&gt;" style="rhombus;whiteSpace=wrap;html=1;" vertex="1" parent="1">
          <mxGeometry x="49.38" y="-880" width="131.25" height="100" as="geometry" />
        </mxCell>
        <mxCell id="v7NjOVT4-B9JpN9Twq9m-52" value="Flowchart for Exercise 2" style="text;html=1;align=center;verticalAlign=middle;resizable=0;points=[];autosize=1;strokeColor=none;fillColor=none;" vertex="1" parent="1">
          <mxGeometry x="520" y="-1060" width="150" height="30" as="geometry" />
        </mxCell>
        <mxCell id="v7NjOVT4-B9JpN9Twq9m-55" value="" style="edgeStyle=orthogonalEdgeStyle;rounded=0;orthogonalLoop=1;jettySize=auto;html=1;" edge="1" parent="1" source="v7NjOVT4-B9JpN9Twq9m-53" target="v7NjOVT4-B9JpN9Twq9m-54">
          <mxGeometry relative="1" as="geometry" />
        </mxCell>
        <mxCell id="v7NjOVT4-B9JpN9Twq9m-53" value="Start" style="ellipse;whiteSpace=wrap;html=1;" vertex="1" parent="1">
          <mxGeometry x="610" y="-1020" width="120" height="60" as="geometry" />
        </mxCell>
        <mxCell id="v7NjOVT4-B9JpN9Twq9m-57" value="" style="edgeStyle=orthogonalEdgeStyle;rounded=0;orthogonalLoop=1;jettySize=auto;html=1;" edge="1" parent="1" source="v7NjOVT4-B9JpN9Twq9m-54" target="v7NjOVT4-B9JpN9Twq9m-56">
          <mxGeometry relative="1" as="geometry" />
        </mxCell>
        <mxCell id="v7NjOVT4-B9JpN9Twq9m-54" value="Input hours" style="shape=parallelogram;perimeter=parallelogramPerimeter;whiteSpace=wrap;html=1;fixedSize=1;" vertex="1" parent="1">
          <mxGeometry x="610" y="-930" width="120" height="60" as="geometry" />
        </mxCell>
        <mxCell id="v7NjOVT4-B9JpN9Twq9m-59" value="" style="edgeStyle=orthogonalEdgeStyle;rounded=0;orthogonalLoop=1;jettySize=auto;html=1;" edge="1" parent="1" source="v7NjOVT4-B9JpN9Twq9m-56" target="v7NjOVT4-B9JpN9Twq9m-58">
          <mxGeometry relative="1" as="geometry" />
        </mxCell>
        <mxCell id="v7NjOVT4-B9JpN9Twq9m-56" value="hours == 0?" style="rhombus;whiteSpace=wrap;html=1;" vertex="1" parent="1">
          <mxGeometry x="630" y="-840" width="80" height="80" as="geometry" />
        </mxCell>
        <mxCell id="v7NjOVT4-B9JpN9Twq9m-61" value="" style="edgeStyle=orthogonalEdgeStyle;rounded=0;orthogonalLoop=1;jettySize=auto;html=1;" edge="1" parent="1" source="v7NjOVT4-B9JpN9Twq9m-58" target="v7NjOVT4-B9JpN9Twq9m-60">
          <mxGeometry relative="1" as="geometry" />
        </mxCell>
        <mxCell id="v7NjOVT4-B9JpN9Twq9m-58" value="Input wholesale&lt;div&gt;material cost&lt;/div&gt;" style="shape=parallelogram;perimeter=parallelogramPerimeter;whiteSpace=wrap;html=1;fixedSize=1;" vertex="1" parent="1">
          <mxGeometry x="610" y="-720" width="120" height="60" as="geometry" />
        </mxCell>
        <mxCell id="v7NjOVT4-B9JpN9Twq9m-66" value="" style="edgeStyle=orthogonalEdgeStyle;rounded=0;orthogonalLoop=1;jettySize=auto;html=1;" edge="1" parent="1" source="v7NjOVT4-B9JpN9Twq9m-60" target="v7NjOVT4-B9JpN9Twq9m-65">
          <mxGeometry relative="1" as="geometry" />
        </mxCell>
        <mxCell id="v7NjOVT4-B9JpN9Twq9m-60" value="Compute total =&lt;div&gt;(hours * 30 + (1.2 * cost)&lt;/div&gt;" style="whiteSpace=wrap;html=1;" vertex="1" parent="1">
          <mxGeometry x="610" y="-630" width="120" height="60" as="geometry" />
        </mxCell>
        <mxCell id="v7NjOVT4-B9JpN9Twq9m-68" value="" style="edgeStyle=orthogonalEdgeStyle;rounded=0;orthogonalLoop=1;jettySize=auto;html=1;" edge="1" parent="1" source="v7NjOVT4-B9JpN9Twq9m-65" target="v7NjOVT4-B9JpN9Twq9m-67">
          <mxGeometry relative="1" as="geometry" />
        </mxCell>
        <mxCell id="v7NjOVT4-B9JpN9Twq9m-65" value="Display total cost" style="shape=parallelogram;perimeter=parallelogramPerimeter;whiteSpace=wrap;html=1;fixedSize=1;" vertex="1" parent="1">
          <mxGeometry x="610" y="-540" width="120" height="60" as="geometry" />
        </mxCell>
        <mxCell id="v7NjOVT4-B9JpN9Twq9m-67" value="End of Program" style="ellipse;whiteSpace=wrap;html=1;" vertex="1" parent="1">
          <mxGeometry x="620" y="-440" width="100" height="60" as="geometry" />
        </mxCell>
        <mxCell id="v7NjOVT4-B9JpN9Twq9m-71" value="" style="endArrow=classic;html=1;rounded=0;entryX=1;entryY=0.5;entryDx=0;entryDy=0;exitX=1;exitY=0.5;exitDx=0;exitDy=0;" edge="1" parent="1" source="v7NjOVT4-B9JpN9Twq9m-65" target="v7NjOVT4-B9JpN9Twq9m-54">
          <mxGeometry width="50" height="50" relative="1" as="geometry">
            <mxPoint x="790" y="-770" as="sourcePoint" />
            <mxPoint x="740" y="-900" as="targetPoint" />
            <Array as="points">
              <mxPoint x="820" y="-510" />
              <mxPoint x="820" y="-900" />
            </Array>
          </mxGeometry>
        </mxCell>
        <mxCell id="v7NjOVT4-B9JpN9Twq9m-72" value="Repeat" style="edgeLabel;html=1;align=center;verticalAlign=middle;resizable=0;points=[];" vertex="1" connectable="0" parent="v7NjOVT4-B9JpN9Twq9m-71">
          <mxGeometry x="-0.0046" y="-4" relative="1" as="geometry">
            <mxPoint as="offset" />
          </mxGeometry>
        </mxCell>
        <mxCell id="v7NjOVT4-B9JpN9Twq9m-74" value="" style="endArrow=classic;startArrow=classic;html=1;rounded=0;entryX=0;entryY=0.5;entryDx=0;entryDy=0;exitX=0;exitY=0.5;exitDx=0;exitDy=0;" edge="1" parent="1" source="v7NjOVT4-B9JpN9Twq9m-65" target="v7NjOVT4-B9JpN9Twq9m-56">
          <mxGeometry width="50" height="50" relative="1" as="geometry">
            <mxPoint x="560" y="-510" as="sourcePoint" />
            <mxPoint x="480" y="-670" as="targetPoint" />
            <Array as="points">
              <mxPoint x="520" y="-510" />
              <mxPoint x="520" y="-800" />
            </Array>
          </mxGeometry>
        </mxCell>
        <mxCell id="v7NjOVT4-B9JpN9Twq9m-76" value="Yes" style="edgeLabel;html=1;align=center;verticalAlign=middle;resizable=0;points=[];" vertex="1" connectable="0" parent="v7NjOVT4-B9JpN9Twq9m-74">
          <mxGeometry x="0.0019" y="-2" relative="1" as="geometry">
            <mxPoint as="offset" />
          </mxGeometry>
        </mxCell>
        <mxCell id="v7NjOVT4-B9JpN9Twq9m-77" value="" style="endArrow=classic;startArrow=classic;html=1;rounded=0;entryX=1;entryY=1;entryDx=0;entryDy=0;exitX=0.667;exitY=0.167;exitDx=0;exitDy=0;exitPerimeter=0;" edge="1" parent="1" source="v7NjOVT4-B9JpN9Twq9m-58" target="v7NjOVT4-B9JpN9Twq9m-56">
          <mxGeometry width="50" height="50" relative="1" as="geometry">
            <mxPoint x="430" y="-620" as="sourcePoint" />
            <mxPoint x="480" y="-670" as="targetPoint" />
          </mxGeometry>
        </mxCell>
        <mxCell id="v7NjOVT4-B9JpN9Twq9m-78" value="No" style="edgeLabel;html=1;align=center;verticalAlign=middle;resizable=0;points=[];" vertex="1" connectable="0" parent="v7NjOVT4-B9JpN9Twq9m-77">
          <mxGeometry x="0.0213" relative="1" as="geometry">
            <mxPoint as="offset" />
          </mxGeometry>
        </mxCell>
        <mxCell id="v7NjOVT4-B9JpN9Twq9m-82" value="" style="edgeStyle=orthogonalEdgeStyle;rounded=0;orthogonalLoop=1;jettySize=auto;html=1;" edge="1" parent="1" source="v7NjOVT4-B9JpN9Twq9m-79" target="v7NjOVT4-B9JpN9Twq9m-81">
          <mxGeometry relative="1" as="geometry" />
        </mxCell>
        <mxCell id="v7NjOVT4-B9JpN9Twq9m-79" value="Input number of&amp;nbsp;&lt;div&gt;bathrooms&lt;/div&gt;" style="shape=parallelogram;perimeter=parallelogramPerimeter;whiteSpace=wrap;html=1;fixedSize=1;" vertex="1" parent="1">
          <mxGeometry x="54.995" y="-780" width="120" height="60" as="geometry" />
        </mxCell>
        <mxCell id="v7NjOVT4-B9JpN9Twq9m-84" value="" style="edgeStyle=orthogonalEdgeStyle;rounded=0;orthogonalLoop=1;jettySize=auto;html=1;" edge="1" parent="1" source="v7NjOVT4-B9JpN9Twq9m-81" target="v7NjOVT4-B9JpN9Twq9m-83">
          <mxGeometry relative="1" as="geometry" />
        </mxCell>
        <mxCell id="v7NjOVT4-B9JpN9Twq9m-81" value="Input number of&amp;nbsp;&lt;div&gt;other rooms&lt;/div&gt;" style="shape=parallelogram;perimeter=parallelogramPerimeter;whiteSpace=wrap;html=1;fixedSize=1;" vertex="1" parent="1">
          <mxGeometry x="54.995000000000005" y="-690" width="120" height="60" as="geometry" />
        </mxCell>
        <mxCell id="v7NjOVT4-B9JpN9Twq9m-86" value="" style="edgeStyle=orthogonalEdgeStyle;rounded=0;orthogonalLoop=1;jettySize=auto;html=1;" edge="1" parent="1" source="v7NjOVT4-B9JpN9Twq9m-83" target="v7NjOVT4-B9JpN9Twq9m-85">
          <mxGeometry relative="1" as="geometry" />
        </mxCell>
        <mxCell id="v7NjOVT4-B9JpN9Twq9m-83" value="Compute total=&lt;div&gt;40 + (bath * 15) +(rooms * 10)&lt;/div&gt;" style="whiteSpace=wrap;html=1;" vertex="1" parent="1">
          <mxGeometry x="54.995000000000005" y="-590" width="120" height="60" as="geometry" />
        </mxCell>
        <mxCell id="v7NjOVT4-B9JpN9Twq9m-88" value="" style="edgeStyle=orthogonalEdgeStyle;rounded=0;orthogonalLoop=1;jettySize=auto;html=1;" edge="1" parent="1" source="v7NjOVT4-B9JpN9Twq9m-85" target="v7NjOVT4-B9JpN9Twq9m-87">
          <mxGeometry relative="1" as="geometry" />
        </mxCell>
        <mxCell id="v7NjOVT4-B9JpN9Twq9m-85" value="Display name,&lt;div&gt;room details, and&amp;nbsp;&lt;/div&gt;&lt;div&gt;total&lt;/div&gt;" style="shape=parallelogram;perimeter=parallelogramPerimeter;whiteSpace=wrap;html=1;fixedSize=1;" vertex="1" parent="1">
          <mxGeometry x="54.995000000000005" y="-505" width="120" height="60" as="geometry" />
        </mxCell>
        <mxCell id="v7NjOVT4-B9JpN9Twq9m-87" value="" style="ellipse;whiteSpace=wrap;html=1;" vertex="1" parent="1">
          <mxGeometry x="57.5" y="-400" width="115" height="60" as="geometry" />
        </mxCell>
        <mxCell id="v7NjOVT4-B9JpN9Twq9m-89" value="" style="endArrow=classic;startArrow=classic;html=1;rounded=0;entryX=1;entryY=0.5;entryDx=0;entryDy=0;exitX=1;exitY=0.5;exitDx=0;exitDy=0;" edge="1" parent="1" source="v7NjOVT4-B9JpN9Twq9m-85" target="v7NjOVT4-B9JpN9Twq9m-43">
          <mxGeometry width="50" height="50" relative="1" as="geometry">
            <mxPoint x="400" y="-690" as="sourcePoint" />
            <mxPoint x="450" y="-740" as="targetPoint" />
            <Array as="points">
              <mxPoint x="240" y="-475" />
              <mxPoint x="240" y="-540" />
              <mxPoint x="240" y="-600" />
              <mxPoint x="240" y="-920" />
            </Array>
          </mxGeometry>
        </mxCell>
        <mxCell id="v7NjOVT4-B9JpN9Twq9m-90" value="Next customer" style="edgeLabel;html=1;align=center;verticalAlign=middle;resizable=0;points=[];" vertex="1" connectable="0" parent="v7NjOVT4-B9JpN9Twq9m-89">
          <mxGeometry x="0.0788" y="1" relative="1" as="geometry">
            <mxPoint as="offset" />
          </mxGeometry>
        </mxCell>
        <mxCell id="v7NjOVT4-B9JpN9Twq9m-91" value="" style="endArrow=classic;startArrow=classic;html=1;rounded=0;entryX=0.858;entryY=0.669;entryDx=0;entryDy=0;entryPerimeter=0;exitX=0.883;exitY=0.062;exitDx=0;exitDy=0;exitPerimeter=0;" edge="1" parent="1" source="v7NjOVT4-B9JpN9Twq9m-79" target="v7NjOVT4-B9JpN9Twq9m-45">
          <mxGeometry width="50" height="50" relative="1" as="geometry">
            <mxPoint x="450" y="-700" as="sourcePoint" />
            <mxPoint x="500" y="-750" as="targetPoint" />
          </mxGeometry>
        </mxCell>
        <mxCell id="v7NjOVT4-B9JpN9Twq9m-92" value="No" style="edgeLabel;html=1;align=center;verticalAlign=middle;resizable=0;points=[];" vertex="1" connectable="0" parent="v7NjOVT4-B9JpN9Twq9m-91">
          <mxGeometry x="-0.0297" y="1" relative="1" as="geometry">
            <mxPoint as="offset" />
          </mxGeometry>
        </mxCell>
        <mxCell id="v7NjOVT4-B9JpN9Twq9m-93" value="" style="endArrow=classic;startArrow=classic;html=1;rounded=0;entryX=0;entryY=0.5;entryDx=0;entryDy=0;exitX=-0.025;exitY=0.694;exitDx=0;exitDy=0;exitPerimeter=0;" edge="1" parent="1" source="v7NjOVT4-B9JpN9Twq9m-87" target="v7NjOVT4-B9JpN9Twq9m-45">
          <mxGeometry width="50" height="50" relative="1" as="geometry">
            <mxPoint x="450" y="-700" as="sourcePoint" />
            <mxPoint x="500" y="-750" as="targetPoint" />
            <Array as="points">
              <mxPoint x="20" y="-360" />
              <mxPoint x="20" y="-410" />
              <mxPoint x="20" y="-470" />
              <mxPoint x="20" y="-710" />
              <mxPoint x="20" y="-830" />
            </Array>
          </mxGeometry>
        </mxCell>
        <mxCell id="v7NjOVT4-B9JpN9Twq9m-94" value="Yes" style="edgeLabel;html=1;align=center;verticalAlign=middle;resizable=0;points=[];" vertex="1" connectable="0" parent="v7NjOVT4-B9JpN9Twq9m-93">
          <mxGeometry x="-0.0051" y="-1" relative="1" as="geometry">
            <mxPoint as="offset" />
          </mxGeometry>
        </mxCell>
      </root>
    </mxGraphModel>
  </diagram>
</mxfile>
